<?xml version="1.0" standalone="no"?>
<!DOCTYPE svg PUBLIC "-//W3C//DTD SVG 20010904//EN"
 "http://www.w3.org/TR/2001/REC-SVG-20010904/DTD/svg10.dtd">
<svg version="1.0" xmlns="http://www.w3.org/2000/svg"
 width="256.000000pt" height="256.000000pt" viewBox="0 0 256.000000 256.000000"
 preserveAspectRatio="xMidYMid meet">
<metadata>
Created by potrace 1.11, written by Peter Selinger 2001-2013
</metadata>
<g transform="translate(0.000000,256.000000) scale(0.100000,-0.100000)"
fill="#000000" stroke="none">
<path d="M1155 2550 c-303 -34 -565 -158 -776 -369 -181 -182 -297 -397 -350
-654 -30 -142 -30 -352 0 -494 108 -520 500 -907 1019 -1010 130 -25 356 -23
491 6 509 108 897 504 998 1019 20 106 23 334 4 442 -30 173 -111 369 -214
519 -66 97 -211 243 -307 310 -249 175 -577 262 -865 231z m-365 -879 c0 -5
-18 -11 -39 -15 -73 -11 -71 -3 -71 -330 0 -214 3 -295 12 -304 18 -18 219
-16 263 2 32 14 44 28 101 122 25 42 24 1 -3 -88 l-29 -93 -277 -3 c-183 -1
-277 1 -277 8 0 5 11 10 24 10 13 0 34 9 47 19 l24 19 0 302 0 302 -24 19
c-13 10 -34 19 -47 19 -13 0 -24 5 -24 10 0 6 60 10 160 10 88 0 160 -4 160
-9z m647 -222 c58 -22 112 -99 113 -161 l0 -28 -166 0 -167 0 7 -47 c13 -100
87 -173 173 -173 47 0 93 32 119 82 11 22 19 27 26 20 19 -19 -19 -96 -67
-141 -129 -119 -319 -22 -333 171 -9 126 41 227 132 269 46 21 120 24 163 8z
m476 -3 c61 -26 107 -93 107 -157 l0 -29 -166 0 -166 0 7 -42 c8 -47 26 -94
47 -119 25 -31 83 -59 121 -59 53 0 88 21 115 69 13 23 27 41 33 41 18 0 8
-46 -21 -97 -70 -122 -214 -140 -313 -38 -115 118 -76 361 68 426 48 22 123
24 168 5z"/>
<path d="M1275 1398 c-25 -20 -55 -73 -55 -98 0 -6 39 -10 105 -10 l105 0 0
25 c0 34 -25 82 -49 95 -32 16 -76 12 -106 -12z"/>
<path d="M1752 1404 c-22 -15 -44 -50 -56 -91 -7 -23 -7 -23 104 -23 98 0 111
2 106 16 -3 9 -6 25 -6 36 0 11 -13 33 -29 49 -34 33 -83 39 -119 13z"/>
</g>
</svg>
